<?xml version="1.0" standalone="no"?>
<!DOCTYPE svg PUBLIC "-//W3C//DTD SVG 20010904//EN"
 "http://www.w3.org/TR/2001/REC-SVG-20010904/DTD/svg10.dtd">
<svg version="1.0" xmlns="http://www.w3.org/2000/svg"
 width="500.000000pt" height="500.000000pt" viewBox="0 0 500.000000 500.000000"
 preserveAspectRatio="xMidYMid meet">

<g transform="translate(0.000000,500.000000) scale(0.100000,-0.100000)"
fill="#000000" stroke="none">
<path d="M0 2500 l0 -2500 2500 0 2500 0 0 2500 0 2500 -2500 0 -2500 0 0
-2500z m2745 765 c1 -6 5 -21 9 -34 6 -16 2 -34 -10 -57 -10 -18 -16 -35 -14
-38 3 -2 38 7 79 21 91 30 236 63 276 62 17 0 -46 -20 -140 -43 -93 -24 -197
-54 -230 -68 -33 -14 -97 -31 -143 -38 l-83 -13 2 -284 c1 -197 -2 -288 -10
-296 -8 -8 -11 -3 -12 19 l0 29 -12 -35 c-16 -45 -54 -61 -91 -37 -43 29 -49
76 -42 343 l7 242 -93 7 c-107 8 -121 14 -165 64 l-33 36 15 -37 c29 -72 48
-217 42 -328 -8 -161 -39 -238 -119 -303 -65 -52 -181 -48 -242 8 -15 13 -26
19 -27 12 -1 -7 -5 -1 -9 13 -7 23 -8 22 -9 -11 -1 -40 -12 -53 -52 -62 -35
-9 -58 17 -75 84 -12 46 -228 449 -241 449 -3 0 -3 -111 -2 -246 l4 -245 -25
-20 c-35 -26 -67 -34 -96 -20 -22 10 -24 16 -25 93 -2 63 -3 74 -8 43 -10 -58
-20 95 -24 365 -3 126 -1 174 2 115 l7 -100 2 118 c2 90 5 119 16 123 8 3 16
14 19 25 7 26 51 25 89 -3 37 -26 123 -157 200 -303 35 -67 56 -98 53 -80 -2
17 -16 91 -31 165 -15 74 -29 147 -31 161 -4 19 2 34 22 53 50 50 80 33 105
-60 18 -70 27 -71 11 -1 -6 24 -5 39 1 43 16 10 25 -13 38 -97 7 -44 15 -79
19 -79 4 0 12 15 19 33 6 17 28 61 48 97 32 58 35 60 17 10 -3 -8 8 4 26 28
35 47 63 62 126 64 35 2 47 -3 77 -33 19 -19 40 -44 46 -55 10 -17 11 -16 12
13 0 49 27 62 119 58 l76 -4 -64 9 c-35 5 -65 10 -66 12 -2 2 101 4 228 5 128
1 266 6 307 11 87 11 105 10 105 -3z m717 -15 c81 -20 163 -58 238 -109 44
-30 45 -30 48 -8 2 12 8 34 14 50 18 46 85 49 105 4 11 -23 9 -370 -2 -387
-11 -17 -43 -11 -65 12 -11 12 -23 40 -27 61 -11 69 -84 133 -205 179 l-51 19
135 -140 c152 -157 189 -216 196 -310 3 -46 0 -62 -20 -91 -51 -77 -185 -104
-300 -60 -62 24 -58 23 -58 8 0 -18 -31 -48 -51 -48 -21 0 -54 57 -64 112 l-7
36 -66 -15 c-92 -21 -269 -78 -361 -117 -42 -18 -92 -36 -112 -40 -33 -6 -38
-3 -68 34 -22 28 -34 54 -36 83 -25 281 -39 399 -52 434 -13 40 -13 46 4 80
23 47 71 65 350 133 223 54 254 55 267 7 16 -61 17 -61 -154 -111 -89 -26
-196 -60 -239 -77 -75 -29 -77 -30 -73 -59 2 -17 6 -30 8 -30 2 0 48 18 101
40 112 47 234 80 293 80 31 0 47 -6 63 -24 22 -24 23 -24 35 -5 15 24 63 25
85 1 8 -9 25 -62 36 -117 34 -165 48 -200 100 -250 27 -24 41 -30 95 -33 85
-6 110 8 103 55 -8 46 -70 119 -252 298 -152 149 -191 205 -180 256 7 31 48
69 74 69 9 0 51 -9 93 -20z m-754 -1230 c67 -41 78 -131 22 -193 l-28 -32
-195 -3 -194 -3 -31 26 c-36 30 -56 83 -47 125 8 36 41 79 69 90 11 5 100 9
196 9 159 1 178 -1 208 -19z"/>
<path d="M1873 3116 c-6 -8 -10 -16 -7 -18 2 -3 -3 -34 -13 -69 -13 -48 -17
-103 -17 -224 0 -88 -3 -146 -7 -130 -13 60 -9 269 6 329 20 77 11 84 -12 10
-19 -64 -25 -267 -10 -356 8 -46 8 -47 -20 -50 l-28 -3 32 -33 c26 -26 39 -33
64 -30 45 4 66 39 86 135 15 71 16 96 5 206 -12 114 -44 248 -60 247 -4 -1
-12 -7 -19 -14z"/>
<path d="M2130 3090 c8 -5 26 -9 40 -9 l25 1 -25 8 c-14 4 -32 8 -40 9 -13 1
-13 0 0 -9z"/>
<path d="M1622 3060 c0 -14 2 -19 5 -12 2 6 2 18 0 25 -3 6 -5 1 -5 -13z"/>
<path d="M1632 3010 c0 -14 2 -19 5 -12 2 6 2 18 0 25 -3 6 -5 1 -5 -13z"/>
<path d="M1642 2950 c0 -14 2 -19 5 -12 2 6 2 18 0 25 -3 6 -5 1 -5 -13z"/>
<path d="M1164 2760 c0 -63 1 -89 3 -57 2 31 2 83 0 115 -2 31 -3 5 -3 -58z"/>
<path d="M1291 2584 c0 -27 4 -58 9 -69 4 -12 6 7 3 45 -7 79 -13 92 -12 24z"/>
<path d="M3175 2850 c-98 -20 -198 -53 -287 -95 -56 -26 -58 -28 -58 -66 0
-21 4 -39 10 -39 5 0 54 18 109 39 149 60 300 111 327 111 21 0 24 5 24 35 0
41 2 41 -125 15z"/>
<path d="M2940 2817 c-56 -17 -86 -35 -76 -44 1 -1 36 11 77 28 108 46 108 51
-1 16z"/>
<path d="M2842 2443 c-24 -8 -41 -17 -38 -20 6 -7 74 16 81 28 4 5 5 9 3 8 -2
0 -22 -7 -46 -16z"/>
<path d="M2291 2004 c-44 -37 -58 -91 -36 -138 29 -60 51 -66 245 -66 193 0
217 6 246 68 21 45 6 100 -37 136 -30 26 -32 26 -209 26 -177 0 -179 0 -209
-26z m136 -60 c4 -10 -1 -20 -13 -27 -18 -10 -18 -11 6 -18 l25 -7 -27 -1
c-31 -1 -36 10 -13 29 20 16 19 34 -1 26 -8 -3 -12 -2 -9 4 9 15 25 12 32 -6z
m58 -20 c0 -19 -5 -29 -15 -29 -16 0 -25 28 -16 51 10 25 31 10 31 -22z m60
25 c4 -5 -1 -19 -10 -29 -15 -17 -15 -19 2 -23 12 -3 9 -5 -9 -6 -20 -1 -26 3
-22 13 3 8 12 17 20 20 8 3 14 10 14 17 0 6 -7 8 -16 5 -8 -3 -12 -2 -9 4 8
13 22 13 30 -1z m58 -53 c-4 -5 -10 3 -14 19 -5 15 -5 33 -2 39 4 5 10 -3 14
-19 5 -15 5 -33 2 -39z m-23 24 c0 -5 -5 -10 -11 -10 -5 0 -7 5 -4 10 3 6 8
10 11 10 2 0 4 -4 4 -10z"/>
<path d="M2460 1925 c0 -14 5 -25 10 -25 6 0 10 11 10 25 0 14 -4 25 -10 25
-5 0 -10 -11 -10 -25z"/>
</g>
</svg>
