<?xml version="1.0" standalone="no"?>
<!DOCTYPE svg PUBLIC "-//W3C//DTD SVG 20010904//EN"
 "http://www.w3.org/TR/2001/REC-SVG-20010904/DTD/svg10.dtd">
<svg version="1.0" xmlns="http://www.w3.org/2000/svg"
 width="500.000000pt" height="500.000000pt" viewBox="0 0 500.000000 500.000000"
 preserveAspectRatio="xMidYMid meet">

<g transform="translate(0.000000,500.000000) scale(0.100000,-0.100000)"
fill="#000000" stroke="none">
<path d="M2650 3268 c-41 -5 -182 -10 -312 -11 -131 -1 -234 -3 -229 -5 5 -2
38 -7 72 -12 l64 -8 -87 1 c-98 1 -118 -9 -118 -57 -1 -29 -1 -30 -13 -10 -7
11 -29 36 -50 54 -32 28 -46 33 -79 31 -55 -3 -92 -24 -124 -69 -21 -31 -25
-33 -20 -12 3 14 -15 -17 -41 -69 l-47 -95 -18 95 c-9 52 -17 95 -17 97 -1 1
-6 2 -12 2 -8 0 -10 -14 -6 -42 17 -112 16 -116 -7 -29 -23 91 -35 111 -66
111 -18 0 -29 -8 -53 -36 -17 -20 -16 -27 12 -170 49 -248 50 -244 -19 -115
-82 154 -161 273 -198 299 -41 30 -80 29 -92 -2 -5 -13 -13 -25 -18 -27 -6 -3
-12 -112 -15 -269 -2 -146 -1 -209 2 -140 7 125 7 125 9 34 1 -50 5 -153 9
-228 6 -130 7 -138 29 -148 27 -12 60 -5 93 21 l24 18 -2 249 c-1 157 1 245 7
239 22 -23 232 -409 232 -427 0 -30 27 -86 47 -96 13 -7 28 -6 51 3 28 12 32
19 32 50 l0 36 38 -35 c47 -46 91 -60 160 -53 87 9 156 75 188 181 36 119 25
372 -21 484 l-16 37 38 -41 c41 -45 55 -49 176 -59 l79 -7 -7 -241 c-5 -173
-4 -254 4 -285 24 -85 104 -96 127 -17 l12 40 1 -35 c1 -26 4 -31 11 -20 6 9
10 132 10 296 l0 280 93 17 c51 9 115 26 142 38 28 12 127 41 220 65 94 23
160 43 149 43 -41 2 -182 -29 -270 -59 -49 -16 -90 -30 -91 -30 -10 0 0 37 13
51 12 13 14 26 9 46 -5 15 -9 32 -9 37 -1 14 -13 14 -96 4z m-737 -180 c42
-110 59 -327 33 -428 -21 -82 -44 -114 -85 -118 -25 -3 -38 4 -64 30 l-32 33
28 3 c26 3 27 5 20 45 -5 23 -8 103 -8 177 1 115 4 145 24 200 21 58 45 98 62
99 4 1 14 -18 22 -41z m286 -4 c10 -9 -56 -3 -69 7 -11 7 -4 8 25 3 22 -4 42
-8 44 -10z m-562 -91 c-3 -10 -5 -4 -5 12 0 17 2 24 5 18 2 -7 2 -21 0 -30z
m10 -60 c-3 -10 -5 -4 -5 12 0 17 2 24 5 18 2 -7 2 -21 0 -30z m-344 -373 c4
-42 3 -58 -3 -45 -8 19 -14 123 -6 114 2 -2 6 -33 9 -69z"/>
<path d="M1836 3001 c-17 -75 -21 -248 -7 -316 6 -25 7 6 4 85 -3 87 0 151 11
210 19 103 14 117 -8 21z"/>
<path d="M3340 3257 c-14 -7 -31 -25 -38 -41 -27 -55 3 -101 183 -280 189
-188 245 -256 245 -297 0 -37 -24 -49 -99 -49 -53 0 -64 4 -96 32 -51 44 -73
94 -101 227 -14 64 -32 126 -40 139 -19 28 -69 30 -86 3 -12 -19 -13 -19 -35
5 -17 18 -32 24 -65 24 -57 0 -168 -31 -291 -82 -54 -22 -100 -38 -102 -36 -2
2 -5 16 -7 32 -3 27 0 30 87 61 50 18 156 52 238 75 137 40 147 45 147 67 0
35 -18 63 -47 74 -19 7 -49 3 -122 -16 -53 -13 -145 -36 -204 -50 -170 -41
-228 -66 -250 -108 -16 -31 -16 -38 -3 -73 8 -22 22 -118 31 -214 9 -96 18
-193 20 -215 2 -22 4 -44 4 -50 1 -5 17 -27 36 -48 41 -45 35 -46 225 28 74
29 178 64 230 78 157 42 147 41 154 5 11 -54 46 -118 65 -118 20 0 51 30 51
49 0 9 6 11 18 6 143 -60 282 -41 340 45 20 29 23 45 20 91 -7 93 -43 152
-194 308 -114 118 -130 138 -103 131 97 -28 219 -123 219 -171 0 -29 34 -87
56 -96 39 -15 44 5 48 187 4 209 -4 239 -60 240 -33 0 -59 -36 -58 -81 2 -42
4 -43 -66 7 -70 49 -144 83 -228 104 -91 23 -90 23 -122 7z m-40 -423 c0 -29
-3 -34 -23 -34 -28 0 -153 -42 -309 -104 -64 -25 -121 -46 -127 -46 -6 0 -11
18 -11 40 0 41 0 41 68 71 98 44 175 69 280 89 52 10 96 21 99 24 12 12 23 -7
23 -40z m-281 2 c-8 -7 -152 -66 -155 -63 -10 10 20 28 76 45 66 20 87 25 79
18z m-109 -371 c0 -10 -82 -46 -98 -43 -10 2 7 13 38 25 65 26 60 24 60 18z"/>
<path d="M1144 3065 c0 -55 1 -76 3 -47 2 29 2 74 0 100 -2 26 -3 2 -3 -53z"/>
<path d="M1163 2585 c0 -27 2 -38 4 -22 2 15 2 37 0 50 -2 12 -4 0 -4 -28z"/>
<path d="M2286 2019 c-32 -25 -56 -69 -56 -104 0 -35 24 -79 56 -104 25 -20
39 -21 215 -21 l188 0 35 31 c60 52 61 126 1 186 l-33 33 -190 0 c-177 0 -191
-1 -216 -21z m428 -18 c52 -49 51 -124 -4 -173 l-30 -28 -179 0 c-178 0 -180
0 -210 26 -58 48 -58 125 0 177 l31 28 183 -3 c179 -3 184 -4 209 -27z"/>
<path d="M2394 1948 c-5 -8 -2 -9 9 -5 21 8 22 -6 2 -23 -23 -19 -18 -30 13
-29 23 2 24 2 4 6 l-22 4 21 18 c13 10 19 23 15 29 -9 15 -33 15 -42 0z"/>
<path d="M2452 1944 c-13 -24 -3 -54 18 -54 10 0 20 8 23 19 5 20 -9 51 -23
51 -5 0 -13 -7 -18 -16z m28 -19 c0 -14 -4 -25 -10 -25 -5 0 -10 11 -10 25 0
14 5 25 10 25 6 0 10 -11 10 -25z"/>
<path d="M2504 1948 c-5 -8 -2 -9 9 -5 24 9 31 -10 7 -23 -28 -15 -25 -30 8
-29 23 0 24 2 7 8 -18 7 -18 8 -1 18 12 7 17 17 13 27 -7 19 -33 21 -43 4z"/>
<path d="M2585 1950 c-3 -5 -3 -15 1 -22 4 -6 3 -8 -4 -4 -6 3 -13 2 -17 -4
-3 -5 1 -10 9 -10 9 0 16 -4 16 -10 0 -5 5 -10 10 -10 13 0 13 57 1 65 -5 3
-12 1 -16 -5z"/>
</g>
</svg>
